#!OML:ASF X:\für Bonn\!DataBase\2005_08_11_Bastian_Final\c3d\Bastian.ASF
:FULLY-SPECIFIED
:DEGREES
127
root -21.6457 17.6154 0.193862 84.5101 -80.5473 -89.9184
lowerback 6.36215 3.86959 8.87809
upperback 3.12438 5.54828 -2.88497
thorax 0.859655 2.9271 -8.27817
lowerneck -10.0441 -10.5103 -3.48775
upperneck -11.738 -13.5622 13.9016
head -0.768898 -7.04494 4.74993
rclavicle 1.96797e-014 -1.27222e-014
rhumerus 56.9704 12.088 15.1834
rradius 30.8647
rwrist -32.5712
rhand -5.13303 -7.97766
rfingers 7.12502
rthumb 20.6656 -36.8975
lclavicle 1.96797e-014 -1.27222e-014
lhumerus -21.9221 -8.20558 81.5511
lradius 7.72081
lwrist 3.27931
lhand -10.7579 -4.71072
lfingers 7.12502
lthumb 15.2537 24.7069
rfemur 9.7997 2.82071 26.2802
rtibia 29.958
rfoot -10.3094 -0.730566
rtoes -27.4266
lfemur -7.16673 4.38933 -11.8677
ltibia 28.3884
lfoot -7.48571 -11.9259
ltoes -2.45841
128
root -21.6487 17.6155 0.194812 84.3311 -80.5457 -89.7037
lowerback 6.41033 3.89677 8.87477
upperback 3.1347 5.58674 -2.93381
thorax 0.856924 2.94705 -8.33289
lowerneck -10.0333 -10.567 -3.46492
upperneck -11.8107 -13.6364 13.9536
head -0.785827 -7.08773 4.76313
rclavicle -7.85199e-014 4.92986e-014
rhumerus 56.8069 12.0938 15.1042
rradius 30.9111
rwrist -33.2637
rhand -4.81445 -8.20425
rfingers 7.12502
rthumb 20.9717 -37.0905
lclavicle -7.85199e-014 4.92986e-014
lhumerus -22.2175 -8.10282 81.4061
lradius 7.54609
lwrist 3.09514
lhand -10.817 -4.77555
lfingers 7.12502
lthumb 15.1967 24.6464
rfemur 9.78833 2.80224 26.2728
rtibia 29.9322
rfoot -10.2936 -0.732012
rtoes -27.5493
lfemur -7.20133 4.3392 -11.8752
ltibia 28.3932
lfoot -7.49243 -11.9219
ltoes -2.34302
129
root -21.6517 17.6164 0.195324 84.2024 -80.5231 -89.5472
lowerback 6.47313 3.91718 8.86114
upperback 3.13712 5.61742 -2.94981
thorax 0.831393 2.96099 -8.34815
lowerneck -9.97736 -10.617 -3.51529
upperneck -11.9108 -13.6923 14.0485
head -0.812084 -7.12144 4.80969
rclavicle -5.30755e-014 4.92986e-014
rhumerus 56.678 12.0821 14.9607
rradius 30.954
rwrist -33.8809
rhand -4.51836 -8.44837
rfingers 7.12502
rthumb 21.2561 -37.3028
lclavicle -5.30755e-014 4.92986e-014
lhumerus -22.5315 -7.95853 81.2843
lradius 7.37794
lwrist 2.96922
lhand -10.8672 -4.84569
lfingers 7.12502
lthumb 15.1484 24.5799
rfemur 9.78237 2.79621 26.295
rtibia 29.9022
rfoot -10.2705 -0.728779
rtoes -27.5373
lfemur -7.23489 4.33435 -11.8549
ltibia 28.404
lfoot -7.49315 -11.943
ltoes -2.31906
130
root -21.655 17.617 0.195916 84.0729 -80.5216 -89.3807
lowerback 6.51274 3.95038 8.85341
upperback 3.14864 5.66289 -2.99425
thorax 0.835321 2.98472 -8.39504
lowerneck -9.98301 -10.6767 -3.47677
upperneck -11.9679 -13.773 14.0838
head -0.822987 -7.1667 4.81206
rclavicle -1.86858e-014 2.8625e-014
rhumerus 56.5073 12.0965 14.8767
rradius 31.0009
rwrist -34.5386
rhand -4.27902 -8.63125
rfingers 7.12502
rthumb 21.486 -37.4596
lclavicle -1.86858e-014 2.8625e-014
lhumerus -22.797 -7.86344 81.1359
lradius 7.22833
lwrist 2.82052
lhand -10.907 -4.92541
lfingers 7.12502
lthumb 15.1101 24.503
rfemur 9.76884 2.78842 26.2908
rtibia 29.8704
rfoot -10.2592 -0.722604
rtoes -27.5392
lfemur -7.26899 4.32324 -11.8609
ltibia 28.4085
lfoot -7.49937 -11.9548
ltoes -2.30929
131
root -21.6573 17.6168 0.196782 83.846 -80.4982 -89.1381
lowerback 6.58171 3.9702 8.8492
upperback 3.15019 5.69384 -3.00956
thorax 0.80651 2.99875 -8.41564
lowerneck -9.85397 -10.731 -3.54218
upperneck -12.2868 -13.7725 14.531
head -0.750757 -7.19792 4.50421
rclavicle -2.32578e-014 3.33958e-014
rhumerus 56.3713 12.1133 14.76
rradius 31.0495
rwrist -35.1142
rhand -4.05837 -8.84981
rfingers 7.12502
rthumb 21.6979 -37.6538
lclavicle -2.32578e-014 3.33958e-014
lhumerus -23.094 -7.73952 81.0112
lradius 7.08008
lwrist 2.692
lhand -10.9789 -5.00357
lfingers 7.12502
lthumb 15.0408 24.4301
rfemur 9.77809 2.74615 26.3013
rtibia 29.8376
rfoot -10.2463 -0.701289
rtoes -27.6614
lfemur -7.28688 4.29379 -11.8438
ltibia 28.4119
lfoot -7.50778 -11.9508
ltoes -2.36235
132
root -21.661 17.618 0.197113 83.7223 -80.472 -88.9782
lowerback 6.60644 3.99746 8.85369
upperback 3.16324 5.73113 -3.03472
thorax 0.81784 3.01879 -8.44733
lowerneck -9.77704 -10.7812 -3.56708
upperneck -12.4204 -13.8275 14.634
head -0.786797 -7.23542 4.54392
rclavicle 2.08724e-014 -2.54444e-014
rhumerus 56.2267 12.1417 14.7017
rradius 31.1071
rwrist -35.6809
rhand -3.90891 -9.08087
rfingers 7.12502
rthumb 21.8414 -37.8683
lclavicle 2.08724e-014 -2.54444e-014
lhumerus -23.339 -7.62591 80.8526
lradius 6.94638
lwrist 2.6303
lhand -11.0121 -5.12227
lfingers 7.12502
lthumb 15.0089 24.3138
rfemur 9.76994 2.74116 26.3274
rtibia 29.7981
rfoot -10.231 -0.700211
rtoes -27.629
lfemur -7.32601 4.29218 -11.82
ltibia 28.4202
lfoot -7.52151 -11.9775
ltoes -2.34853
133
root -21.664 17.6183 0.198032 83.5385 -80.4705 -88.7687
lowerback 6.64676 4.01883 8.83735
upperback 3.17468 5.7605 -3.06219
thorax 0.815154 3.0337 -8.47103
lowerneck -9.72909 -10.8457 -3.61635
upperneck -12.4951 -13.9032 14.7336
head -0.797615 -7.27827 4.58087
rclavicle -5.24792e-014 3.18055e-014
rhumerus 56.106 12.1995 14.6909
rradius 31.1715
rwrist -36.272
rhand -3.7811 -9.28189
rfingers 7.12502
rthumb 21.9641 -38.0549
lclavicle -5.24792e-014 3.18055e-014
lhumerus -23.6001 -7.50031 80.6991
lradius 6.86348
lwrist 2.57478
lhand -11.0587 -5.15847
lfingers 7.12502
lthumb 14.964 24.2809
rfemur 9.7716 2.72566 26.3214
rtibia 29.7591
rfoot -10.2054 -0.692659
rtoes -27.6795
lfemur -7.34845 4.18954 -11.8331
ltibia 28.4298
lfoot -7.52739 -11.9155
ltoes -2.063
134
root -21.667 17.6191 0.198541 83.4132 -80.4475 -88.6158
lowerback 6.67549 4.04636 8.83879
upperback 3.19035 5.79811 -3.08567
thorax 0.826656 3.0539 -8.49945
lowerneck -9.65639 -10.9036 -3.63185
upperneck -12.6216 -13.9701 14.8267
head -0.831303 -7.32151 4.61523
rclavicle -4.37326e-015 6.04305e-014
rhumerus 55.9714 12.2443 14.6545
rradius 31.2215
rwrist -36.7711
rhand -3.61268 -9.47835
rfingers 7.12502
rthumb 22.1259 -38.2323
lclavicle -4.37326e-015 6.04305e-014
lhumerus -23.8352 -7.38652 80.5419
lradius 6.81376
lwrist 2.533
lhand -11.0795 -5.18048
lfingers 7.12502
lthumb 14.9439 24.2604
rfemur 9.77175 2.69631 26.3336
rtibia 29.7201
rfoot -10.1919 -0.673272
rtoes -27.6165
lfemur -7.37589 4.18408 -11.8126
ltibia 28.4342
lfoot -7.53317 -11.9326
ltoes -2.09522
135
root -21.6704 17.6197 0.198781 83.282 -80.4412 -88.449
lowerback 6.69977 4.06888 8.82366
upperback 3.1923 5.82838 -3.11696
thorax 0.823638 3.06909 -8.52705
lowerneck -9.56965 -10.9636 -3.68126
upperneck -12.7228 -14.037 14.962
head -0.853192 -7.36343 4.66629
rclavicle -7.7526e-015 -5.24792e-014
rhumerus 55.8514 12.3168 14.6159
rradius 31.2817
rwrist -37.23
rhand -3.41244 -9.6329
rfingers 7.12502
rthumb 22.3181 -38.364
lclavicle -7.7526e-015 -5.24792e-014
lhumerus -24.1082 -7.26854 80.3571
lradius 6.82783
lwrist 2.51187
lhand -11.051 -5.21086
lfingers 7.12502
lthumb 14.9714 24.228
rfemur 9.76239 2.69287 26.338
rtibia 29.6833
rfoot -10.1613 -0.670923
rtoes -27.6474
lfemur -7.41165 4.17911 -11.8115
ltibia 28.4441
lfoot -7.53582 -11.9339
ltoes -2.08968
136
root -21.6739 17.6204 0.199841 83.0465 -80.4383 -88.188
lowerback 6.71853 4.08532 8.79353
upperback 3.20586 5.84881 -3.12865
thorax 0.829923 3.07961 -8.52379
lowerneck -9.48362 -11.0115 -3.70578
upperneck -12.8275 -14.0912 15.0193
head -0.885977 -7.39834 4.6924
rclavicle 1.21259e-014 5.08889e-014
rhumerus 55.7564 12.4012 14.7006
rradius 31.3686
rwrist -37.8075
rhand -3.18112 -9.78395
rfingers 7.12502
rthumb 22.5401 -38.4882
lclavicle 1.21259e-014 5.08889e-014
lhumerus -24.3695 -7.1247 80.2081
lradius 6.87115
lwrist 2.49151
lhand -11.0811 -5.16491
lfingers 7.12502
lthumb 14.9424 24.2761
rfemur 9.76948 2.64698 26.3214
rtibia 29.6453
rfoot -10.1565 -0.641096
rtoes -27.6555
lfemur -7.43688 4.14908 -11.8202
ltibia 28.4536
lfoot -7.54597 -11.9442
ltoes -2.07994
137
root -21.6771 17.62 0.200252 82.9252 -80.4158 -88.0495
lowerback 6.74673 4.10798 8.79977
upperback 3.22121 5.88015 -3.15428
thorax 0.840917 3.09675 -8.55716
lowerneck -9.39187 -11.0604 -3.70784
upperneck -12.9632 -14.1462 15.1133
head -0.927007 -7.43754 4.72752
rclavicle 2.54444e-014 -2.22639e-014
rhumerus 55.629 12.4671 14.662
rradius 31.4277
rwrist -38.2499
rhand -2.89084 -9.89193
rfingers 7.12502
rthumb 22.8187 -38.5622
lclavicle 2.54444e-014 -2.22639e-014
lhumerus -24.6116 -7.01257 80.0104
lradius 6.96266
lwrist 2.53287
lhand -11.0384 -5.10804
lfingers 7.12502
lthumb 14.9835 24.3299
rfemur 9.77962 2.61711 26.3331
rtibia 29.6133
rfoot -10.147 -0.637588
rtoes -27.6682
lfemur -7.45251 4.1436 -11.7989
ltibia 28.4613
lfoot -7.54106 -11.9604
ltoes -2.01384
